<svg width="49.238mm" height="48.222mm" version="1.1" viewBox="0 0 49.238 48.222" xmlns="http://www.w3.org/2000/svg">
 <g transform="translate(-5.3904 -5.9005)">
  <path d="m22.854 5.9023c-2.2064 0.087696-4.0455 1.5021-5.8214 2.661-0.97613 0.73777-2.1803 1.4366-2.6181 2.6397-0.17812 0.48587 0.49458 0.80355 0.19727 1.2031-0.14856 0.7977 0.62194 1.3865 0.88281 2.0879 1.5255 2.6623 3.1223 5.2819 4.6992 7.9141-3.8531 1.143-7.7007 2.3473-11.529 3.5834-0.68463 0.2817-1.5144 0.37404-2.0916 0.80722-0.35666 0.24039-0.045976 0.87045-0.44246 0.95706-0.98837 0.4106-0.69647 1.6326-0.7069 2.4763 0.20533 3.4207 0.5871 6.8318 0.95457 10.238 0.12729 0.72287 0.15676 1.5223 0.42831 2.1833 0.91106 0.7998 2.1584 1.0332 3.2143 1.5887 7.4073 3.176 14.706 6.6109 22.085 9.8397 0.5417 0.17955 1.1652-0.2718 1.3809-0.5957 0.25966 0.8514 1.2836 0.65221 1.8659 0.27601 5.1074-2.356 10.096-4.9563 15.14-7.444 0.72238-4.9181 1.1927-9.8759 1.4355-14.84 0.01369-0.5597-0.30821-1.2756-0.96875-1.125-0.53878 0.06837 0.10801-0.1995 0.14844-0.47266 0.84231 0.01332 1.4028-0.76464 1.468-1.5407 0.97596-3.4966 1.8814-7.0604 2.0448-10.701 0.02364-1.4145 0.05832-2.9874-0.93497-4.1171-0.81087-1.0928-1.9819-1.9656-3.3298-2.2429-0.63041-0.63919-1.6042-0.78935-2.4143-1.1297-3.6441-1.1386-7.4366-1.6991-11.176-2.4328-4.4178-0.76993-8.8524-1.5357-13.332-1.8131-0.19312 0.0012-0.38678-0.00652-0.57969-0.00135z" style="fill:#ffffff"/>
  <path d="m42.078 49.337 7.4514-3.72 0.08207-0.51207c0.46537-2.9037 1.4236-13.508 1.2374-13.694-0.06884-0.0688-1.4111 0.33207-3.6707 1.0964-3.0575 1.0342-5.1151 1.7614-11.186 3.9537-0.56328 0.2034-1.0881 0.41987-1.1664 0.48105-0.10062 0.0787-0.14165 0.53172-0.14021 1.5482 0.0012 0.79031-0.05893 4.3443-0.13343 7.8978-0.08274 3.9458-0.09461 6.5013-0.03048 6.5648 0.0636 0.063 3.0421-1.3624 7.5564-3.616zm-9.4652 3.545c0.06641-0.12571 0.14439-3.3595 0.19448-8.0644 0.07023-6.5971 0.0586-7.8746-0.07267-7.9798-0.17653-0.14143-10.14-3.4644-10.202-3.4025-0.022 0.022 0.0138 2.1283 0.0795 4.6809s0.10496 4.6554 0.0873 4.673c-0.0176 0.0176-1.4889-0.54428-3.2696-1.2487l-3.2376-1.2807-0.073-1.4179c-0.0402-0.77986-0.11206-2.792-0.15976-4.4714l-0.0867-3.0534-0.29204-0.11104c-0.42217-0.16051-5.2406-1.5881-7.2295-2.1419-1.3844-0.38548-1.721-0.44496-1.8308-0.32351-0.099 0.10952-0.11037 0.52447-0.043 1.5712 0.22875 3.5557 1.0588 11.588 1.2135 11.742 0.047 0.047 1.3902 0.64375 2.9848 1.326 3.95 1.6901 6.6338 2.8845 14.62 6.5064 3.7552 1.7031 6.9128 3.1209 7.0169 3.1508 0.10944 0.0314 0.2362-0.0343 0.30025-0.15554zm-10.837-12.471c-0.0347-0.57892-0.0946-2.4662-0.13317-4.1939l-0.07-3.1414-1.5521-0.48841c-0.85368-0.26862-1.9311-0.60726-2.3943-0.75253l-0.84219-0.26412 0.0752 2.5853c0.0414 1.4219 0.10735 3.2561 0.14665 4.076l0.0715 1.4907 2.2886 0.8729c1.2588 0.48009 2.3301 0.8718 2.3808 0.87046 0.0507-1e-3 0.0638-0.4761 0.0291-1.055zm-2.6714-1.9721c-0.47887-0.19161-0.69299-0.56655-0.69299-1.2135 0-0.1844-0.10869-0.48792-0.24153-0.67448-0.96745-1.3586 0.12309-2.6918 1.5416-1.8846 0.89197 0.50759 1.2323 1.7798 0.64372 2.4063-0.16732 0.17811-0.23691 0.40209-0.23691 0.7626 0 0.7878-0.22253 0.9203-1.0139 0.60366zm29.169-7.5932c0.3708-0.13709 0.69162-0.30283 0.71295-0.3683 0.02222-0.0682-0.8852-0.35478-2.125-0.67112-1.1901-0.30364-2.1638-0.57216-2.1638-0.5967 0-0.0245 0.09949-0.23965 0.2211-0.47801l0.2211-0.4334 2.3108 0.60707c1.2709 0.33389 2.4004 0.60776 2.5099 0.60862 0.341 3e-3 0.21979-0.29549-0.28996-0.71319-0.38589-0.31621-0.76406-0.47352-1.7922-0.7455-0.71673-0.18959-2.0712-0.54884-3.01-0.79832-9.2776-2.4656-17.347-4.4847-21.492-5.3777-0.36729-0.0791-0.75724-0.22398-0.86657-0.32189-0.19204-0.17198-1.5412-2.3249-4.2118-6.7211-0.70338-1.1578-1.293-2.1211-1.3104-2.1406-0.0974-0.10946-1.3072-0.15252-1.3072-0.0465 0 0.12347 1.792 3.1857 4.4096 7.5354l1.4723 2.4465 1.465 0.31894c0.80575 0.17542 1.4876 0.34154 1.5152 0.36915 0.0818 0.0818-0.3689 0.84811-0.49888 0.84811-0.0657 0-0.89466-0.17083-1.8422-0.37962l-1.7228-0.37962-1.5741 0.48205c-5.2981 1.6224-11.441 3.5635-11.517 3.6388-0.0308 0.0308-8e-3 0.0987 0.0503 0.15106 0.13902 0.12451 1.1842 0.40492 1.438 0.3858 0.10873-8e-3 1.1081-0.29472 2.2209-0.63673 8.375-2.5741 9.2903-2.8319 9.8057-2.7612 1.3964 0.19139 13.595 3.143 22.6 5.4683 2.0653 0.53332 3.832 0.96727 3.9258 0.96434 0.09388-3e-3 0.47407-0.1175 0.84486-0.2546zm-12.811-3.9288c-2.7752-0.68656-5.5579-1.3658-6.1838-1.5093-0.62586-0.14359-1.1587-0.27606-1.1842-0.29439-0.02545-0.0183 0.04595-0.23779 0.15864-0.4877 0.16421-0.36415 0.25248-0.44334 0.44453-0.39878 3.3986 0.7885 12.363 3.0025 12.5 3.0872 0.13977 0.0864-0.39652 0.96384-0.5525 0.90399-0.0755-0.029-2.4079-0.6144-5.1831-1.301zm15.947 1.6356c0.3006-0.79062 1.0789-3.8795 1.4777-5.8646 0.58562-2.9151 0.71757-4.0836 0.6692-5.9264-0.03713-1.4148-0.06255-1.5652-0.34607-2.0475-0.53949-0.91768-1.305-1.665-2.1129-2.0628-0.67014-0.32991-0.88255-0.37599-1.9078-0.41395-1.3116-0.0486-2.4251 0.17681-4.0759 0.82488-1.877 0.73688-5.0818 2.5783-5.0818 2.9199 0 0.27015 10.77 12.787 11.039 12.83 0.15661 0.0252 0.26024-0.0543 0.3383-0.25962zm-23.245-13.938c0.91721-1.156 0.91083-1.1442 0.61791-1.1442-0.12669 0-0.25774-0.0443-0.2912-0.0985-0.03347-0.0541 0.49758-0.64303 1.1801-1.3086 0.68252-0.66559 1.2318-1.2136 1.2205-1.2177-0.01127-4e-3 -0.49844-0.0704-1.0826-0.14729-1.0386-0.13661-1.0702-0.13387-1.4224 0.12345-0.37963 0.27735-2.2533 2.102-2.2066 2.1488 0.01499 0.015 0.48222 0.10671 1.0382 0.20376 0.55602 0.0971 1.0339 0.19946 1.0621 0.22757 0.02813 0.0281-0.2211 0.39082-0.55381 0.80601-0.4746 0.59225-0.65455 0.74157-0.83528 0.69308-0.1267-0.034-0.5376-0.12067-0.91312-0.19262-0.37551-0.0719-0.72778-0.17148-0.78281-0.22119-0.055-0.0497 0.11028-0.38685 0.36754-0.74949 0.39282-0.55372 0.43955-0.6748 0.29228-0.75722-0.09642-0.054-0.24898-0.0698-0.33904-0.0353-0.15472 0.0594-1.3017 1.7187-1.3017 1.8831 0 0.0424 0.71496 0.23063 1.5888 0.41836l1.5888 0.34131zm12.038-0.0572c1.6623-1.0421 4.2295-2.3323 5.462-2.7451 0.50069-0.16767 1.2944-0.33814 1.7638-0.37883l0.85345-0.074-0.56896-0.19172c-3.9883-1.344-20.35-4.1734-24.352-4.2112-1.3666-0.0129-1.7588 0.10707-3.5638 1.09-1.9071 1.0386-4.4909 3.047-4.3055 3.3469 0.043 0.0695 0.37177 0.15955 0.73066 0.20001 1.3997 0.15782 5.9697 0.77383 7.533 1.0154l1.646 0.25436 1.1419-1.1535c0.62807-0.63442 1.3527-1.2937 1.6102-1.4651l0.46828-0.31162 1.8611 0.23852c1.0236 0.13119 1.8739 0.25136 1.8896 0.26705 0.01568 0.0157-0.42812 0.40319-0.98624 0.86111-1.1018 0.90403-2.3207 2.1334-2.1896 2.2085 0.04494 0.0258 0.33775 0.0834 0.65068 0.12797 0.4241 0.0605 6.5728 1.2743 8.762 1.7298 0.14364 0.0299 0.73125-0.2684 1.5931-0.80871z" style="fill:#000000;stroke-width:.11379;stroke:#000000"/>
 </g>
</svg>
